<svg
            xmlns="http://www.w3.org/2000/svg"
            x="0px"
            y="0px"
            viewBox="-35 0 385.5 466.3"
          >
            <style type="text/css">
              .st1 {
                fill: #ffffff;
              }
              .st24 {
                fill: #fbf9f9;
              }
              .st7 {
                fill: #efefef;
              }
              .st21 {
                fill: #d6d6d6;
              }
              .st13 {
                opacity: 0.1;
                fill: #ffffff;
              }
              .st6618 {
                fill: #ecf0f1;
              }
              .st35 {
                fill: #e0e0e0;
              }
              .st45 {
                fill: #e3e3e3;
              }
              .st51 {
                fill: #e1e1e1;
              }
              .st52 {
                fill: #fdfdfb;
              }
              .st625 {
                fill: #d1d1d1;
              }
              .st5 {
                fill: #606373;
              }
              .st4 {
                opacity: 0.1;
                fill: #a3a3a3;
              }
              .st6 {
                fill: #11113b;
              }
              .st8 {
                fill: #b1b1c9;
              }
              .st9 {
                fill: #dcdbea;
                stroke: #8d8daa;
                stroke-miterlimit: 10;
              }
              .st18 {
                fill: #8d8daa;
              }
              .st12 {
                fill: none;
                stroke: #8d8daa;
                stroke-miterlimit: 10;
              }
              .st11 {
                fill: #0052ff;
                stroke: #ffffff;
                stroke-miterlimit: 10;
              }
              .st14 {
                fill: #060423;
              }
              .st22 {
                fill: #ffffff24;
              }
              .st26 {
                fill: url(#SVGID_1_);
              }
              .st27 {
                fill: #2CFBFB;
              }
              .st47 {
                fill: #ffffff24;
              }
              .st1019 {
                fill: #882043;
              }
              .st1021 {
                opacity: 0.3;
                fill: #16dae8;
              }
              .st1022 {
                opacity: 0.3;
                fill: #1fdbe7;
              }
              .st1023 {
                opacity: 0.5;
                fill: #ba8887;
              }
              .st1024 {
                fill: #212154;
              }
              .st1026 {
                fill: none;
              }
              .st1029 {
                fill: #5497d3;
              }
              .st1030 {
                fill: #2775ca;
              }
              .st1031 {
                fill: #ffde55;
              }
              .st1032 {
                fill: #ffce00;
              }
              .st1034 {
                fill: #e33f00;
              }
              .st10 {
                fill: none;
                stroke: #57b4fc;
                stroke-width: 8;
                stroke-linecap: round;
                stroke-miterlimit: 10;
              }
              .st33 {
                fill: none;
                stroke: #57b4fc;
                stroke-width: 2;
                stroke-linecap: round;
                stroke-miterlimit: 10;
              }
              .st716 {
                fill: #56256b;
              }
              .st717 {
                fill: #00a8e1;
              }
              .st718 {
                fill: #e26d83;
              }
              .st719 {
                fill: #d85c72;
              }
              .st720 {
                fill: #803743;
              }
              .st721 {
                fill: #0071ce;
              }
              .st6619 {
                fill: #f87f6e;
              }
              .st6620 {
                fill: #231f20;
              }
              .st6621 {
                fill: #212154;
              }
              .st32 {
                fill: #77788b;
              }
              .st38 {
                fill: #9a9ab7;
              }
              .st39 {
                fill: #060423;
                stroke: #ffffff;
                stroke-miterlimit: 10;
              }
              .st43 {
                fill: #212154;
              }
              .st54 {
                opacity: 0.3;
                fill: #b1b1c9;
              }
              .st55 {
                opacity: 0.3;
                fill: #ffffff;
              }
              .st615 {
                fill: #9b9ba2;
              }
              .st620 {
                fill: #ffd469;
              }
              .st621 {
                fill: #00b1ff;
              }
              .st622 {
                fill: #0096d1;
              }
              .st623 {
                fill: #727272;
              }
              .st624 {
                fill: #b2b2b2;
              }
              .st816 {
                fill: #9b9ba2;
              }
              .st820 {
                fill: #75b7b1;
              }
              .st823 {
                opacity: 0.8;
              }
              .st824 {
                opacity: 0.6;
              }
              .st826 {
                fill: none;
                stroke: #01deeb;
                stroke-width: 2;
                stroke-miterlimit: 10;
              }
              .sta18 {
                fill: #9b9ba2;
              }
              .sta21 {
                opacity: 0.1;
                fill: #3aecfe;
              }
              .sta22 {
                opacity: 0.2;
                fill: #ffffff;
              }
              .sta23 {
                fill: #956ec4;
              }
              .sta24 {
                fill: #b77fd8;
              }
              .sta25 {
                fill: #6d2c92;
              }
              .sta26 {
                fill: #1c2042;
              }
              .stb1 {
                fill: #f87f6e;
              }
              .stb2 {
                fill: #d65649;
              }
              .stb6 {
                fill: #882043;
              }
              .sta27 {
                fill: none;
                stroke: #ffa81e;
                stroke-width: 15;
                stroke-linecap: round;
                stroke-linejoin: round;
                stroke-miterlimit: 10;
              }
              .sta28 {
                fill: none;
                stroke: #ffd92d;
                stroke-width: 15;
                stroke-linecap: round;
                stroke-linejoin: round;
                stroke-miterlimit: 10;
              }
            </style>
            <path
              class="st11"
              d="M284.1,67.9l1.3-17.3c0,0-16.7-17.9-5.2-37s40.2-10.9,40.2-10.9s30.3,4.5,30,25.6s-8.6,26.9-22.1,29.5
	c-13.5,2.5-33.4-0.4-33.4-0.4L284.1,67.9z"
            ></path>
            <g>
              <path
                class="st1"
                d="M313.8,32.1c1,0.1,1.6,0.3,1.8,0.7c0.2,0.4,0.3,0.9,0.3,1.4c0,0.5-0.2,0.9-0.6,1.3c-0.3,0.4-1,0.5-1.9,0.5
		l-0.8,8.3c-0.1,0.9-0.4,1.5-1,1.7c-0.5,0.3-1.1,0.4-1.7,0.3c-0.5,0-0.9-0.3-1.3-0.7c-0.4-0.4-0.5-1-0.5-1.8l0.8-8.3l-13.6-1
		l-0.8,8.2c-0.1,0.9-0.4,1.5-1,1.7c-0.5,0.3-1.1,0.4-1.7,0.4c-0.5,0-0.9-0.3-1.3-0.7c-0.4-0.4-0.5-1-0.4-1.8l2.2-22.1
		c0-0.5,0.2-0.9,0.4-1.2c0.2-0.3,0.4-0.5,0.7-0.7c0.3-0.2,0.6-0.2,1-0.3c0.3,0,0.7,0,1,0c0.4,0,0.8,0.2,1.1,0.5
		c0.3,0.3,0.4,0.8,0.3,1.5l-1,10.4l13.6,1l1-9.9c0-0.5,0.2-0.9,0.4-1.2c0.2-0.3,0.5-0.5,0.7-0.7c0.3-0.2,0.6-0.2,1-0.3
		c0.4,0,0.7,0,1,0c0.5,0,0.8,0.2,1.1,0.6c0.3,0.3,0.4,0.8,0.3,1.5L313.8,32.1z"
              >
                <animate
                  attributeName="opacity"
                  repeatCount="indefinite"
                  dur="1s"
                  keyTimes="0;0.5;1"
                  values="1;0.5;1"
                  begin="-0.7142857142857143s"
                ></animate>
              </path>
              <path
                class="st1"
                d="M323.5,45.4c-0.1,0.7-0.4,1.1-0.8,1.4c-0.5,0.3-0.9,0.4-1.4,0.4c-0.5,0-0.9-0.2-1.3-0.5
		c-0.4-0.3-0.6-0.8-0.6-1.4c0.2-2.7,0.5-5.4,0.7-8.2c0.3-2.8,0.5-5.5,0.7-8.2c0.2-0.6,0.5-1,0.9-1.2c0.4-0.3,0.8-0.4,1.3-0.3
		c0.4,0,0.8,0.2,1.2,0.5s0.6,0.7,0.7,1.3c-0.2,2.7-0.5,5.4-0.7,8.2C323.9,40,323.7,42.7,323.5,45.4z M321.2,21.9
		c0.1-0.6,0.3-1.1,0.9-1.6c0.5-0.4,1.1-0.6,1.8-0.5c0.7,0,1.2,0.3,1.7,0.8s0.6,1,0.6,1.7c-0.1,0.6-0.4,1.1-0.9,1.5
		c-0.5,0.4-1.1,0.6-1.8,0.5c-0.7,0-1.2-0.3-1.6-0.8C321.3,23,321.1,22.5,321.2,21.9z"
              >
                <animate
                  attributeName="opacity"
                  repeatCount="indefinite"
                  dur="1s"
                  keyTimes="0;0.5;1"
                  values="1;0.5;1"
                  begin="-0.8571428571428571s"
                ></animate>
              </path>
              <path
                class="st1"
                d="M330.6,45.1c0.1-0.7,0.4-1.2,1-1.6c0.6-0.4,1.2-0.6,2-0.5c0.8,0.1,1.4,0.3,1.9,0.8c0.5,0.5,0.7,1.1,0.6,1.7
		c-0.1,0.6-0.4,1.1-1,1.6c-0.6,0.4-1.3,0.6-2,0.5c-0.7-0.1-1.3-0.3-1.8-0.8C330.7,46.3,330.5,45.7,330.6,45.1z M334.1,21.9
		c0.4-0.3,0.8-0.4,1.2-0.4c0.4,0,0.8,0.2,1.2,0.5c0.4,0.3,0.6,0.7,0.8,1.3L335.9,38c-0.1,0.6-0.4,1.1-0.8,1.4
		c-0.4,0.3-0.9,0.4-1.4,0.4c-0.5,0-0.9-0.2-1.3-0.5c-0.4-0.3-0.6-0.8-0.6-1.4l1.5-14.7C333.4,22.6,333.7,22.2,334.1,21.9z"
              >
                <animate
                  attributeName="opacity"
                  repeatCount="indefinite"
                  dur="1s"
                  keyTimes="0;0.5;1"
                  values="1;0.5;1"
                  begin="-0.2857142857142857s"
                ></animate>
              </path>
            </g>
            <ellipse class="st4" cx="154.1" cy="450.3" rx="135.6" ry="16">
              <animate
                attributeName="rx"
                repeatCount="indefinite"
                dur="2s"
                keyTimes="0;0.5;1"
                values="115.6;135.6;115.6"
              ></animate>
            </ellipse>
            <g>
              <path
                class="st5"
                d="M83.1,281.8c-17.6,1.3-22.8,11.7-22.8,11.7c38.9,9.1,150.1,9.1,189.1,0c0,0-6.7-11.4-24.2-12.7
	C203.5,279.2,104.3,280.2,83.1,281.8z"
              ></path>
              <path
                class="st6"
                d="M211.8,287.6c0,0,3.2-4.2-0.6-7.4s-108.2-1.5-112-0.3s-0.9,7.7-0.9,7.7c-3.2,5.3,1.2,7.8,1.2,7.8
	c-1.4,1.4,1.2,3.2,1.2,3.2l3.3,2.9l48.5-0.6l53.5,0.6l3.3-2.9c0,0,2.7-1.8,1.2-3.2C210.5,295.5,215,293,211.8,287.6z"
              ></path>
              <path
                class="st7"
                d="M249.4,293.5c-38.9,9.1-150.1,9.1-189.1,0c0,0-6.4,101.1,50.2,116c0,0,21.6,5.3,44.3,5.1
	c22.8,0.2,44.3-5.1,44.3-5.1C255.8,394.6,249.4,293.5,249.4,293.5z"
              ></path>
              <path
                class="st8"
                d="M220.4,320.4c-0.9-13.9-1.8-18.9-1.9-19.8v-0.2c0,0,0,0,0,0c0,0,0,0,0,0s-0.6,0.1-1.8,0.2
	c-5.9,0.7-26.1,2.6-61.2,2.6c-35.1,0-55.3-1.9-61.2-2.6c-1.2-0.1-1.8-0.2-1.8-0.2s0,0,0,0c0,0,0,0,0,0v0.2c-0.2,0.9-1.1,6-1.9,19.8
	c-0.5,8.6,0,19.4,0,19.4s-0.1,19.3,12.2,34.8c0.9,1.2,2,2.4,3.1,3.5c2.7,2.8,5.1,5.2,7.9,7.3c0,0,0.1,0.1,0.1,0.1
	c0.1,0.1,0.2,0.1,0.3,0.2c0.9,0.6,1.8,1.2,2.8,1.8c0,0,0,0,0,0c0.3,0.2,0.7,0.4,1,0.6c0.2,0.1,0.5,0.3,0.7,0.4
	c0.1,0.1,0.2,0.1,0.3,0.2c7.1,3.4,17.3,5.2,36.1,5.2c0.1,0,0.1,0,0.2,0c0.1,0,0.1,0,0.2,0c0.1,0,0.1,0,0.2,0c0.1,0,0.1,0,0.2,0
	c18.8,0,29-1.8,36.1-5.2c0.1-0.1,0.2-0.1,0.3-0.2c0.3-0.1,0.5-0.2,0.7-0.4c0.4-0.2,0.7-0.4,1-0.6c0,0,0,0,0,0c1-0.6,1.9-1.2,2.8-1.8
	c0.1-0.1,0.2-0.1,0.3-0.2c0,0,0.1-0.1,0.1-0.1c2.8-2.1,5.2-4.5,7.9-7.3c1.1-1.1,2.1-2.3,3.1-3.5c12.3-15.5,12.2-34.8,12.2-34.8
	S220.9,329,220.4,320.4z"
              ></path>
              <circle class="st9" cx="99.2" cy="306.5" r="3.8"></circle>
              <circle class="st9" cx="115.9" cy="375" r="3.8"></circle>
              <path
                class="st18"
                d="M216.7,300.6C216.7,300.6,216.6,300.6,216.7,300.6c-2.1,0.2-5.8,0.6-11.2,1c1.7,12.6,3.2,44.2-7.7,59.6
	c-14.7,20.9-60.4,39.3-87.2,21.7c1,0.9,2,1.8,3.1,2.6c0,0,0.1,0.1,0.1,0.1c0.1,0.1,0.2,0.1,0.3,0.2c0.9,0.6,1.8,1.2,2.8,1.8
	c0,0,0,0,0,0c0.3,0.2,0.7,0.4,1,0.6c0.2,0.1,0.5,0.3,0.7,0.4c0.1,0.1,0.2,0.1,0.3,0.2c7.1,3.4,17.3,5.2,36.1,5.2c0.1,0,0.1,0,0.2,0
	c0.1,0,0.1,0,0.2,0c0.1,0,0.1,0,0.2,0c0.1,0,0.1,0,0.2,0c18.8,0,29-1.8,36.1-5.2c0.1-0.1,0.2-0.1,0.3-0.2c0.3-0.1,0.5-0.2,0.7-0.4
	c0.4-0.2,0.7-0.4,1-0.6c0,0,0,0,0,0c1-0.6,1.9-1.2,2.8-1.8c0.1-0.1,0.2-0.1,0.3-0.2c0,0,0.1-0.1,0.1-0.1c2.8-2.1,5.2-4.5,7.9-7.3
	c1.1-1.1,2.1-2.3,3.1-3.5c12.3-15.5,12.2-34.8,12.2-34.8s0.5-10.8,0-19.4c-0.9-13.9-1.8-18.9-1.9-19.8v-0.2
	C218.4,300.4,217.8,300.5,216.7,300.6z"
              ></path>
              <circle class="st11" cx="189.6" cy="328.2" r="21.6">
                <animate
                  attributeName="fill"
                  repeatCount="indefinite"
                  dur="2s"
                  keyTimes="0;0.5;1"
                  values="#272362;#0052ff;#272362"
                ></animate>
              </circle>
              <circle class="st9" cx="211.2" cy="306.5" r="3.8"></circle>
              <path
                class="st12"
                d="M249.4,293.5c-38.9,9.1-150.1,9.1-189.1,0c0,0-6.4,101.1,50.2,116c0,0,21.6,5.3,44.3,5.1
	c22.8,0.2,44.3-5.1,44.3-5.1C255.8,394.6,249.4,293.5,249.4,293.5z"
              ></path>
              <path
                class="st13"
                d="M175.6,344.7c3.8,3.2,8.6,5.1,13.9,5.1c11.9,0,21.6-9.7,21.6-21.6c0-6.1-2.6-11.7-6.7-15.6
	c1.5,3.7,7.5,20.5-7.9,31.4C196.7,344,188,348.6,175.6,344.7z"
              ></path>
              <path
                class="st1"
                d="M189.6,334.5c-3.5,0-6.3-2.8-6.3-6.3c0-3.5,2.8-6.3,6.3-6.3c3.1,0,5.7,2.3,6.2,5.3h6.4
	c-0.5-6.5-6-11.6-12.6-11.6c-7,0-12.7,5.7-12.7,12.7c0,7,5.7,12.7,12.7,12.7c6.6,0,12.1-5.1,12.6-11.6h-6.4
	C195.3,332.2,192.7,334.5,189.6,334.5z"
              ></path>
              <circle class="st9" cx="195.3" cy="375" r="3.8"></circle>
              <path
                class="st14"
                d="M238.7,367.8c-10.7-6.7-21.1,11-21.1,11c-16.3,29.9-51.8,35.5-51.8,35.5s0,0,0,0c18.3-1.1,33.4-4.8,33.4-4.8
	c20.5-5.4,32.8-22.1,40-41.3C239.1,368,238.9,367.9,238.7,367.8z"
              ></path>
              <path
                class="st14"
                d="M91.4,378.7c0,0-10.4-17.7-21.1-11c7.2,19.3,19.5,36.2,40.2,41.7c0,0,14.8,3.6,32.7,4.8
	C143.1,414.2,107.7,408.6,91.4,378.7z"
              ></path>
              <path
                class="st18"
                d="M249.4,294.5c-0.7-0.2-1.4-0.4-2.1-0.5c-3,0.6-6.2,1.2-9.9,1.7l-2.3,1.6c0,0-1.7,45,1.5,51.3
	c1.8,3.5,4.5,5.6,6.6,6.8C250.6,328.1,249.7,299.9,249.4,294.5z"
              ></path>
              <path
                class="st18"
                d="M100.9,298.7c-0.4-0.9-1.5-2-3.3-3.4c-16.3-12.2-32.1-2.1-33.9-0.8C73.4,296.4,86.3,297.8,100.9,298.7z"
              ></path>
              <path
                class="st18"
                d="M209,298.7c0.4-0.9,1.5-2,3.3-3.4c16.3-12.2,32.1-2.1,33.9-0.8C236.5,296.4,223.6,297.8,209,298.7z"
              ></path>
              <path
                class="st12"
                d="M249.4,293.5c-38.9,9.1-150.1,9.1-189.1,0c0,0-6.4,101.1,50.2,116c0,0,21.6,5.3,44.3,5.1
	c22.8,0.2,44.3-5.1,44.3-5.1C255.8,394.6,249.4,293.5,249.4,293.5z"
              ></path>
              <path
                class="st21"
                d="M249.7,287.2c0,0,7.8,12.6,7.5,47.5c0,0-0.6,9.2-5.8,12c-4.9,2.6-8.2-3.4-9.4-6.3c-2.5-5.9-2.1-10.6-2.5-22.2
	c-0.3-11.5-5.4-28.5-5.4-28.5l11.3-0.1L249.7,287.2z"
              ></path>
              <path
                class="st7"
                d="M234.1,289.7c0,0,5.1,17,5.4,28.5s0,16.3,2.5,22.2c0.6,1.4,1.6,3.3,3,4.9c0.4-1.2,0.9-2.6,1.3-4
	c5.5-19.2-3.7-40.8-9.4-51.6L234.1,289.7z"
              ></path>
              <path
                class="st12"
                d="M249.7,287.2c0,0,7.8,12.6,7.5,47.5c0,0-0.6,9.2-5.8,12c-4.9,2.6-8.2-3.4-9.4-6.3c-2.5-5.9-2.1-10.6-2.5-22.2
	c-0.3-11.5-5.4-28.5-5.4-28.5l11.3-0.1L249.7,287.2z"
              ></path>
              <path
                class="st7"
                d="M283.5,80.5C266,68.8,74.2,54.1,55.1,63.1c0,0-44.2,18.5-50.7,65.4l-4.3,56.2c0,0-2.1,44.9,11.9,62
	s28.4,26.3,50.2,31.9c19.2,4.9,66.2,10.4,86.9,12.4l0,0.1c1,0.1,2.1,0.2,3.4,0.2c1.3,0.1,2.5,0.2,3.4,0.3l0-0.1
	c20.8,1.2,68.1,2.9,87.8,0.9c22.4-2.2,37.9-9.2,54.4-23.9c16.5-14.7,21.2-59.5,21.2-59.5l4.3-56.2
	C324.3,105.5,283.5,80.5,283.5,80.5z"
              ></path>
              <path
                class="st1"
                d="M4.9,128.4l-2.4,31.9c14.6-74.2,60.4-92.5,60.4-92.5l-1.5-6.9c-2.2,0.7-4.2,1.4-5.7,2.1
	C55.6,63,11.4,81.5,4.9,128.4z"
              ></path>
              <path
                class="st14"
                d="M263.8,261.1c-0.7,0.3-1.4,0.7-2.2,1.2c-5.4,2.9-14.3,7.7-42.1,8.8l-59.3-3.3l-8.1-0.6l-59.1-5.7
	c-27.3-5.3-35.4-11.4-40.3-15.1c-0.7-0.5-1.4-1-2-1.5c-17.1-13.4-16.4-47.4-16.4-48.8l2.9-38c1.2-19.5,5.2-24.3,5.8-24.9l0.3-0.1
	l0.4-0.6c4.4-6.1,14.4-10.4,22.4-13.8c1.2-0.5,2.4-1,3.5-1.5c28.1-9.4,77.7-7.7,94.4-6.8l8.1,0.6c16.6,1.7,65.9,7.5,92.3,21.1
	c1,0.6,2.1,1.3,3.3,2c7.4,4.6,16.7,10.3,20,17.1l0.3,0.7l0.3,0.1c0.5,0.7,3.7,6.1,1.9,25.5l-2.9,38
	C287.3,216.8,282.7,250.5,263.8,261.1z"
              ></path>
              <path
                class="st21"
                d="M283.5,80.5c-0.2-0.1-0.4-0.2-0.5-0.3l5.9,7.6c0,0,33.6,31.3,24.2,82.3c-9.4,51-19.3,89.7-62.4,109.7
	c-37.4,17.3-109.9,9.9-196.5-3.6c2.6,0.9,5.3,1.6,8.1,2.4c19.2,4.9,66.2,10.4,86.9,12.4l0,0.1c1,0.1,2.1,0.2,3.4,0.2
	c1.3,0.1,2.5,0.2,3.4,0.3l0-0.1c20.8,1.2,68.1,2.9,87.8,0.9c22.4-2.2,37.9-9.2,54.4-23.9c16.5-14.7,21.2-59.5,21.2-59.5l4.3-56.2
	C324.3,105.5,283.5,80.5,283.5,80.5z"
              ></path>
              <path
                class="st22"
                d="M72.4,251.9c0,0-26.4-5.6-28.6-36.2s3.5-66.7,3.5-66.7s0.7-13.3,24.5-21c14.6-4.7,52.2-14.4,102.6-9.3
	c31.8,3.2,84.3,8.2,108,32.2c0,0-131.7-50.2-201.3,4.6C81.1,155.5,30.8,193.8,72.4,251.9z"
              ></path>
              <path
                class="st22"
                d="M241.7,152.8c0,0-145.9-44.5-175.1,56.2c0,0-5.1-64.9,90.8-70.2C157.3,138.8,211,139,241.7,152.8z"
              ></path>
              <path
                class="st12"
                d="M283.5,80.5C266,68.8,74.2,54.1,55.1,63.1c0,0-44.2,18.5-50.7,65.4l-4.3,56.2c0,0-2.1,44.9,11.9,62
	s28.4,26.3,50.2,31.9c19.2,4.9,66.2,10.4,86.9,12.4l0,0.1c1,0.1,2.1,0.2,3.4,0.2c1.3,0.1,2.5,0.2,3.4,0.3l0-0.1
	c20.8,1.2,68.1,2.9,87.8,0.9c22.4-2.2,37.9-9.2,54.4-23.9c16.5-14.7,21.2-59.5,21.2-59.5l4.3-56.2
	C324.3,105.5,283.5,80.5,283.5,80.5z"
              ></path>
              <path
                class="st24"
                d="M172.1,45.2c-74.1-7.6-116.4,15-116.4,15s4.1,3.2,6.6,7.7c2.5,4.4,5.7,9.4,17.4,15.4
	c14.9,7.6,88.3,14.3,88.3,14.3s73.6,4.6,89.4-0.7c12.5-4.1,16.4-8.6,19.6-12.6c3.2-4,7.7-6.6,7.7-6.6S246.5,48.9,172.1,45.2z"
              ></path>
              <polygon
                class="st18"
                points="284.9,81.5 285.7,77.7 281.8,79.7 "
              ></polygon>
              <path
                class="st7"
                d="M266.2,67.2c-12.6,6.6-54.1,26.3-94.8,23.4c-48.7-3.5-108.2-23-108.2-23c-0.3,0.1-0.5,0.2-0.8,0.3
	c2.5,4.4,5.8,9.4,17.4,15.3c14.9,7.6,88.3,14.3,88.3,14.3s73.6,4.6,89.4-0.7c12.5-4.1,16.4-8.6,19.6-12.6c3.2-4,7.7-6.6,7.7-6.6
	S278.6,73,266.2,67.2z"
              ></path>
              <path
                class="st12"
                d="M172.1,45.2c-74.1-7.6-116.4,15-116.4,15s4.1,3.2,6.6,7.7c2.5,4.4,5.7,9.4,17.4,15.4
	c14.9,7.6,88.3,14.3,88.3,14.3s73.6,4.6,89.4-0.7c12.5-4.1,16.4-8.6,19.6-12.6c3.2-4,7.7-6.6,7.7-6.6S246.5,48.9,172.1,45.2z"
              ></path>
              <linearGradient
                id="SVGID_1_"
                gradientUnits="userSpaceOnUse"
                x1="158.6506"
                y1="168.0428"
                x2="422.43"
                y2="168.0428"
                gradientTransform="matrix(0.9971 7.617819e-02 -7.617819e-02 0.9971 -114.6933 -0.679)"
              >
                <stop offset="0" style="stop-color: #ffffff"></stop>
                <stop offset="0.9994" style="stop-color: #99aad1"></stop>
              </linearGradient>
              <path
                class="st26"
                d="M295.3,177.8c1.9-21-1.7-27.5-3.2-29.3c-4.1-7.8-13.8-13.9-21.7-18.7c-1.2-0.7-2.3-1.4-3.3-2.1l-0.2-0.1
	c-13.8-7.1-34.8-13-62.5-17.5c-13.4-2.2-25.2-3.5-31.8-4.2l0-0.1l-2.5-0.2c0,0-0.6,0-1.6-0.1c-1-0.1-1.5-0.1-1.6-0.1l-2.5-0.2l0,0.1
	c-6.6-0.4-18.5-0.9-32.1-0.7c-28,0.3-49.7,2.9-64.4,7.8l-0.2,0.1c-1.1,0.5-2.3,1-3.6,1.5c-8.5,3.6-19,8.1-24.3,15.2
	c-1.8,1.5-6.3,7.4-7.6,28.5l-2.9,38l0,0.1c-0.1,1.5-1.1,37.9,18.4,53l0.1,0.1c0.6,0.4,1.2,0.9,1.9,1.4c5.2,3.9,13.9,10.5,42.4,16
	l59.5,5.8l0,0.2l4.1,0.2l4.1,0.4l0-0.2l59.7,3.4c29-1.1,38.6-6.3,44.4-9.4c0.7-0.4,1.4-0.8,2.1-1.1l0.1-0.1
	c21.5-12.1,26-48.1,26.2-49.6l0-0.1L295.3,177.8z M263.8,261.1c-0.7,0.3-1.4,0.7-2.2,1.2c-5.4,2.9-14.3,7.7-42.1,8.8l-59.3-3.3
	l-8.1-0.6l-59.1-5.7c-27.3-5.3-35.4-11.4-40.3-15.1c-0.7-0.5-1.4-1-2-1.5c-17.1-13.4-16.4-47.4-16.4-48.8l2.9-38
	c1.2-19.5,5.2-24.3,5.8-24.9l0.3-0.1l0.4-0.6c4.4-6.1,14.4-10.4,22.4-13.8c1.2-0.5,2.4-1,3.5-1.5c28.1-9.4,77.7-7.7,94.4-6.8
	l8.1,0.6c16.6,1.7,65.9,7.5,92.3,21.1c1,0.6,2.1,1.3,3.3,2c7.4,4.6,16.7,10.3,20,17.1l0.3,0.7l0.3,0.1c0.5,0.7,3.7,6.1,1.9,25.5
	l-2.9,38C287.3,216.8,282.7,250.4,263.8,261.1z"
              ></path>
              <polygon
                class="st18"
                points="54.6,62.9 54.8,60 57.7,61.7 "
              ></polygon>
              <path
                class="st27"
                d="M160,250.6c4.7,0.4,8.8-3.2,9.1-7.9l-17-1.3C151.8,246.1,155.3,250.2,160,250.6z"
              ></path>
              <path class="st5" d="M150.8,287.7"></path>
              <svg
                version="1.1"
                xmlns="http://www.w3.org/2000/svg"
                x="-2px"
                y="150px"
                viewBox="-10 0 350 230"
                xml:space="preserve"
              >
                <g>
                  <path
                    class="st7"
                    d="M51.6,27.5c0,0-23.4-13.9-29.4-20.8c0,0-11.1-8.1-16.7-6.6S-1,7.3,1,11.6S17.5,42,45.4,41.2
	C45.4,41.2,44.9,31.4,51.6,27.5z"
                  ></path>
                  <path
                    class="st21"
                    d="M45.4,41.2c0,0-0.3-5.5,2.4-9.9C29.3,32.1,10.4,22,5.6,19.2C12.1,28.3,25.2,41.8,45.4,41.2z"
                  ></path>
                  <path
                    class="st12"
                    d="M51.6,27.5c0,0-23.4-13.9-29.4-20.8c0,0-11.1-8.1-16.7-6.6S-1,7.3,1,11.6S17.5,42,45.4,41.2
	C45.4,41.2,44.9,31.4,51.6,27.5z"
                  ></path>
                  <animateTransform
                    attributeName="transform"
                    type="rotate"
                    values="-10 50 50;-20 50 50;-10 50 50;"
                    times="0;0.5;1"
                    dur="0.5s"
                    repeatCount="indefinite"
                  ></animateTransform>
                </g>
              </svg>

              <circle class="st27" cx="97.1" cy="209.4" r="27.8">
                <animate
                  attributeName="r"
                  repeatCount="indefinite"
                  dur="2s"
                  keyTimes="0;0.01;0.02;0.98;0.99;1"
                  values="0;0;27.8;27.8;0;0"
                ></animate>
              </circle>
              <circle class="st27" cx="224.9" cy="215.3" r="27.8">
                <animate
                  attributeName="r"
                  repeatCount="indefinite"
                  dur="2s"
                  keyTimes="0;0.01;0.02;0.98;0.99;1"
                  values="0;0;27.8;27.8;0;0"
                ></animate>
              </circle>
              <animateTransform
                attributeName="transform"
                type="translate"
                repeatCount="indefinite"
                dur="2s"
                keyTimes="0;0.5;1"
                values="0 -3;0 5;0 -3"
              ></animateTransform>
            </g>
          </svg>