<svg xmlns="http://www.w3.org/2000/svg" x="0px" y="0px"
	 viewBox="0 0 108.8 18.8" xml:space="preserve">
<style type="text/css">
	.st0{fill:#0052FF;}
</style>
<path class="st0" d="M33.5,0.2c-0.3,0-0.5,0-0.8,0.1c-0.2,0.1-0.5,0.2-0.7,0.4s-0.3,0.4-0.4,0.6S31.5,1.8,31.5,2
	c0,0.5,0.2,1,0.6,1.3c0.4,0.3,0.9,0.5,1.4,0.5s1-0.2,1.4-0.5s0.6-0.8,0.6-1.3c0-0.3,0-0.5-0.1-0.7S35.2,0.8,35,0.7
	c-0.2-0.2-0.4-0.3-0.7-0.4S33.7,0.2,33.5,0.2L33.5,0.2z M102.3,5.3c-4,0-7,2.9-7,6.8c0,4.1,3.2,6.8,7,6.8c3.3,0,5.8-1.9,6.5-4.5
	h-3.3c-0.5,1.2-1.6,1.8-3.2,1.8c-2,0-3.5-1.2-3.9-3.3h10.4v-1.2C108.9,7.9,106.1,5.3,102.3,5.3z M98.7,10.6c0.5-1.8,1.9-2.7,3.5-2.7
	c1.8,0,3.1,1,3.5,2.7H98.7z M22,5.3c-0.9,0-1.9,0.1-2.7,0.5c-0.9,0.3-1.7,0.8-2.3,1.4c-0.7,0.6-1.2,1.4-1.5,2.2
	C15.2,10.2,15,11.1,15,12c0,3.9,3,6.8,7,6.8c0.9,0,1.9-0.1,2.7-0.5c0.9-0.3,1.7-0.8,2.3-1.5c0.7-0.6,1.2-1.4,1.5-2.2
	c0.4-0.8,0.5-1.7,0.5-2.6C29.1,8.2,26.1,5.3,22,5.3z M22,16.1c-2.3,0-3.9-1.7-3.9-4s1.6-4,3.9-4s3.9,1.7,3.9,4S24.3,16,22,16.1
	L22,16.1z M44.9,5.3c-2,0-3.4,0.8-4.2,1.9V5.5h-3.1v13.1h3.1v-7.1c0-2,1.3-3.4,3.3-3.4c1.8,0,2.9,1.2,2.9,3v7.5H50v-7.7
	C50.1,7.6,48.3,5.3,44.9,5.3z M7,8.1c0.8,0,1.5,0.2,2.2,0.7c0.6,0.4,1.1,1.1,1.3,1.8h3.3C13.2,7.4,10.5,5.3,7,5.3
	c-0.9,0-1.9,0.1-2.7,0.5C3.5,6.1,2.7,6.6,2,7.2S0.8,8.6,0.5,9.4C0.2,10.3,0,11.2,0,12.1c0,3.9,3,6.8,7,6.8c3.4,0,6.1-2.1,6.7-5.3
	h-3.3c-0.2,0.7-0.7,1.3-1.3,1.8c-0.6,0.4-1.4,0.7-2.1,0.7c-2.3,0-3.9-1.7-3.9-4C3.2,9.8,4.7,8.1,7,8.1z M29.9,8.3h2v10.3H35V5.5h-5
	L29.9,8.3z M79.6,10c0-2.8-1.8-4.7-5.6-4.7c-3.6,0-5.6,1.8-5.9,4.4h3.1c0.2-1.1,1-1.9,2.8-1.9c1.6,0,2.4,0.7,2.4,1.5
	c0,1.1-1.5,1.4-3.2,1.5c-2.4,0.3-5.4,1.1-5.4,4.1c0,2.3,1.8,3.9,4.7,3.9c2.3,0,3.7-0.9,4.4-2.3c0.1,1.3,1.1,2.1,2.5,2.1h1.8v-2.7
	h-1.5L79.6,10z M76.5,13.3c0,1.8-1.6,3-3.5,3c-1.2,0-2.2-0.5-2.2-1.5c0-1.3,1.6-1.6,3.1-1.8s2.2-0.4,2.6-1V13.3z M89.7,10.8
	l-2.3-0.3c-1.1-0.2-1.9-0.5-1.9-1.3c0-0.9,1-1.4,2.4-1.4c1.5,0,2.5,0.6,2.7,1.7h3c-0.3-2.6-2.4-4.2-5.7-4.2c-3.3,0-5.5,1.6-5.5,4
	c0,2.2,1.5,3.5,4.4,3.9l2.3,0.3c1.1,0.2,1.8,0.6,1.8,1.4c0,1-1.1,1.5-2.6,1.5c-1.9,0-2.9-0.7-3.1-1.8h-3.1c0.3,2.5,2.4,4.3,6.1,4.3
	c3.4,0,5.7-1.5,5.7-4.1C93.9,12.4,92.3,11.2,89.7,10.8L89.7,10.8z M59.8,5.3c-0.8,0-1.6,0.2-2.4,0.5c-0.7,0.3-1.4,0.8-1.9,1.4V0
	h-3.1v18.6h3.1v-1.7c0.5,0.6,1.2,1.1,1.9,1.5c0.7,0.3,1.6,0.5,2.4,0.5c3.8,0,6.6-2.9,6.6-6.8S63.6,5.3,59.8,5.3z M59.4,16.1
	c-2.3,0-3.9-1.7-3.9-4s1.7-4,3.9-4c2.3,0,3.9,1.7,3.9,4S61.6,16,59.4,16.1L59.4,16.1z"/>
</svg>
