<svg xml:space="preserve" viewBox="-10 -10 377.4 449.8" y="0px" x="0px" xmlns="http://www.w3.org/2000/svg">
        <style type="text/css">
                .st1 {
                        fill: #FFFFFF;
                }

                .st24 {
                        fill: #fbf9f9;
                }

                .st7 {
                        fill: #EFEFEF;
                }

                .st21 {
                        fill: #d6d6d6;
                }

                .st13 {
                        opacity: 0.1;
                        fill: #FFFFFF;
                }

                .st6618 {
                        fill: #ECF0F1;
                }

                .st35 {
                        fill: #E0E0E0;
                }

                .st45 {
                        fill: #E3E3E3;
                }

                .st51 {
                        fill: #E1E1E1;
                }

                .st52 {
                        fill: #FDFDFB;
                }

                .st625 {
                        fill: #D1D1D1;
                }

                .st5 {
                        fill: #606373;
                }

                .st4 {
                        opacity: 0.1;
                        fill: #a3a3a3;
                }

                .st6 {
                        fill: #11113B;
                }

                .st8 {
                        fill: #B1B1C9;
                }

                .st9 {
                        fill: #DCDBEA;
                        stroke: #8D8DAA;
                        stroke-miterlimit: 10;
                }

                .st18 {
                        fill: #8D8DAA;
                }

                .st12 {
                        fill: none;
                        stroke: #8D8DAA;
                        stroke-miterlimit: 10;
                }

                .st11 {
                        fill: #0052ff;
                        stroke: #FFFFFF;
                        stroke-miterlimit: 10;
                }

                .st14 {
                        fill: #060423;
                }

                .st22 {
                        fill: #ffffff24;
                }

                .st26 {
                        fill: url(#SVGID_1_);
                }

                .st27 {
                        fill: #2CFBFB;
                }

                .st47 {
                        fill: #ffffff24;
                }

                .st1019 {
                        fill: #882043;
                }

                .st1021 {
                        opacity: 0.3;
                        fill: #16DAE8;
                }

                .st1022 {
                        opacity: 0.3;
                        fill: #1FDBE7;
                }

                .st1023 {
                        opacity: 0.5;
                        fill: #BA8887;
                }

                .st1024 {
                        fill: #212154;
                }

                .st1026 {
                        fill: none;
                }

                .st1029 {
                        fill: #5497D3;
                }

                .st1030 {
                        fill: #2775CA;
                }

                .st1031 {
                        fill: #FFDE55;
                }

                .st1032 {
                        fill: #FFCE00;
                }

                .st1034 {
                        fill: #E33F00;
                }

                .st10 {
                        fill: none;
                        stroke: #2CFBFB;
                        stroke-width: 8;
                        stroke-linecap: round;
                        stroke-miterlimit: 10;
                }

                .st33 {
                        fill: none;
                        stroke: #2CFBFB;
                        stroke-width: 2;
                        stroke-linecap: round;
                        stroke-miterlimit: 10;
                }

                .st716 {
                        fill: #56256B;
                }

                .st717 {
                        fill: #00A8E1;
                }

                .st718 {
                        fill: #E26D83;
                }

                .st719 {
                        fill: #D85C72;
                }

                .st720 {
                        fill: #803743;
                }

                .st721 {
                        fill: #0071CE;
                }

                .st6619 {
                        fill: #F87F6E;
                }

                .st6620 {
                        fill: #231F20;
                }

                .st6621 {
                        fill: #212154;
                }

                .st32 {
                        fill: #77788B;
                }

                .st38 {
                        fill: #9A9AB7;
                }

                .st39 {
                        fill: #060423;
                        stroke: #FFFFFF;
                        stroke-miterlimit: 10;
                }

                .st43 {
                        fill: #212154;
                }

                .st54 {
                        opacity: 0.3;
                        fill: #B1B1C9;
                }

                .st55 {
                        opacity: 0.3;
                        fill: #FFFFFF;
                }

                .st615 {
                        fill: #9B9BA2;
                }

                .st620 {
                        fill: #FFD469;
                }

                .st621 {
                        fill: #00B1FF;
                }

                .st622 {
                        fill: #0096D1;
                }

                .st623 {
                        fill: #727272;
                }

                .st624 {
                        fill: #B2B2B2;
                }

                .st816 {
                        fill: #9B9BA2;
                }

                .st820 {
                        fill: #75B7B1;
                }

                .st823 {
                        opacity: 0.8;
                }

                .st824 {
                        opacity: 0.6;
                }

                .st826 {
                        fill: none;
                        stroke: #01DEEB;
                        stroke-width: 2;
                        stroke-miterlimit: 10;
                }

                .sta18 {
                        fill: #9B9BA2;
                }

                .sta21 {
                        opacity: 0.1;
                        fill: #3AECFE;
                }

                .sta22 {
                        opacity: 0.2;
                        fill: #FFFFFF;
                }

                .sta23 {
                        fill: #956EC4;
                }

                .sta24 {
                        fill: #B77FD8;
                }

                .sta25 {
                        fill: #6D2C92;
                }

                .sta26 {
                        fill: #1C2042;
                }

                .stb1 {
                        fill: #F87F6E;
                }

                .stb2 {
                        fill: #D65649;
                }

                .stb6 {
                        fill: #882043;
                }

                .sta27 {
                        fill: none;
                        stroke: #FFA81E;
                        stroke-width: 15;
                        stroke-linecap: round;
                        stroke-linejoin: round;
                        stroke-miterlimit: 10;
                }

                .sta28 {
                        fill: none;
                        stroke: #FFD92D;
                        stroke-width: 15;
                        stroke-linecap: round;
                        stroke-linejoin: round;
                        stroke-miterlimit: 10;
                }
        </style>
        <ellipse class="st4" cx="183.2" cy="423.8" rx="135.6" ry="16">
                <animate accumulate="none" additive="replace" attributeName="rx" calcMode="linear" dur="2s"
                        fill="remove" keyTimes="0;0.5;1" repeatCount="indefinite" restart="always"
                        values="115.6;135.6;115.6">
                </animate>
        </ellipse>
        <g>
                <polygon class="st18" points="283,20.9 283.3,17.1 279.7,19.6 "></polygon>
                <path class="st5" d="M109.8,243.4C92.2,244.7,87,255.1,87,255.1c38.9,9.1,150.1,9.1,189.1,0c0,0-6.7-11.4-24.2-12.7
	C230.2,240.8,131,241.8,109.8,243.4z"></path>
                <path class="st6" d="M238.5,249.3c0,0,3.2-4.2-0.6-7.4c-3.8-3.2-108.2-1.5-112-0.3c-3.8,1.2-0.9,7.7-0.9,7.7
	c-3.2,5.3,1.2,7.8,1.2,7.8c-1.4,1.4,1.2,3.2,1.2,3.2l3.3,2.9l48.5-0.6l53.5,0.6l3.3-2.9c0,0,2.7-1.8,1.2-3.2
	C237.2,257.1,241.7,254.6,238.5,249.3z"></path>
                <path class="st7" d="M86.8,255.1c38.9,9.1,150.1,9.1,189.1,0c0,0,6.4,101.1-50.2,116c0,0-21.6,5.3-44.3,5.1
	c-22.8,0.2-44.3-5.1-44.3-5.1C80.3,356.2,86.8,255.1,86.8,255.1z"></path>
                <path class="st8" d="M247.1,282c-0.9-13.9-1.8-18.9-1.9-19.8V262c0,0,0,0,0,0c0,0,0,0,0,0s-0.6,0.1-1.8,0.2
	c-5.9,0.7-26.1,2.6-61.2,2.6c-35.1,0-55.3-1.9-61.2-2.6c-1.2-0.1-1.8-0.2-1.8-0.2s0,0,0,0c0,0,0,0,0,0v0.2c-0.2,0.9-1.1,6-1.9,19.8
	c-0.5,8.6,0,19.4,0,19.4s-0.1,19.3,12.2,34.8c0.9,1.2,2,2.4,3.1,3.5c2.7,2.8,5.1,5.2,7.9,7.3c0,0,0.1,0.1,0.1,0.1
	c0.1,0.1,0.2,0.1,0.3,0.2c0.9,0.6,1.8,1.2,2.8,1.8c0,0,0,0,0,0c0.3,0.2,0.7,0.4,1,0.6c0.2,0.1,0.5,0.3,0.7,0.4
	c0.1,0.1,0.2,0.1,0.3,0.2c7.1,3.4,17.3,5.2,36.1,5.2c0.1,0,0.1,0,0.2,0c0.1,0,0.1,0,0.2,0c0.1,0,0.1,0,0.2,0c0.1,0,0.1,0,0.2,0
	c18.8,0,29-1.8,36.1-5.2c0.1-0.1,0.2-0.1,0.3-0.2c0.3-0.1,0.5-0.2,0.7-0.4c0.4-0.2,0.7-0.4,1-0.6c0,0,0,0,0,0c1-0.6,1.9-1.2,2.8-1.8
	c0.1-0.1,0.2-0.1,0.3-0.2c0,0,0.1-0.1,0.1-0.1c2.8-2.1,5.2-4.5,7.9-7.3c1.1-1.1,2.1-2.3,3.1-3.5c12.3-15.5,12.2-34.8,12.2-34.8
	S247.6,290.6,247.1,282z"></path>
                <circle class="st9" cx="125.9" cy="268.1" r="3.8"></circle>
                <circle class="st9" cx="142.6" cy="336.6" r="3.8"></circle>
                <path class="st18" d="M243.4,262.2C243.3,262.2,243.3,262.2,243.4,262.2c-2.1,0.2-5.8,0.6-11.2,1c1.7,12.6,3.2,44.2-7.7,59.6
	c-14.7,20.9-60.4,39.3-87.2,21.7c1,0.9,2,1.8,3.1,2.6c0,0,0.1,0.1,0.1,0.1c0.1,0.1,0.2,0.1,0.3,0.2c0.9,0.6,1.8,1.2,2.8,1.8
	c0,0,0,0,0,0c0.3,0.2,0.7,0.4,1,0.6c0.2,0.1,0.5,0.3,0.7,0.4c0.1,0.1,0.2,0.1,0.3,0.2c7.1,3.4,17.3,5.2,36.1,5.2c0.1,0,0.1,0,0.2,0
	c0.1,0,0.1,0,0.2,0c0.1,0,0.1,0,0.2,0c0.1,0,0.1,0,0.2,0c18.8,0,29-1.8,36.1-5.2c0.1-0.1,0.2-0.1,0.3-0.2c0.3-0.1,0.5-0.2,0.7-0.4
	c0.4-0.2,0.7-0.4,1-0.6c0,0,0,0,0,0c1-0.6,1.9-1.2,2.8-1.8c0.1-0.1,0.2-0.1,0.3-0.2c0,0,0.1-0.1,0.1-0.1c2.8-2.1,5.2-4.5,7.9-7.3
	c1.1-1.1,2.1-2.3,3.1-3.5c12.3-15.5,12.2-34.8,12.2-34.8s0.5-10.8,0-19.4c-0.9-13.9-1.8-18.9-1.9-19.8V262
	C245.1,262,244.5,262.1,243.4,262.2z"></path>
                <circle r="21.6" cy="289.8" cx="216.2" class="st39">
                        <animate attributeName="fill" repeatCount="indefinite" dur="2s" keyTimes="0;0.5;1"
                                values="#272362;#0052ff;#272362"></animate>
                </circle>
                <circle class="st9" cx="237.9" cy="268.1" r="3.8"></circle>
                <path class="st12" d="M86.8,255.1c38.9,9.1,150.1,9.1,189.1,0c0,0,6.4,101.1-50.2,116c0,0-21.6,5.3-44.3,5.1
	c-22.8,0.2-44.3-5.1-44.3-5.1C80.3,356.2,86.8,255.1,86.8,255.1z"></path>
                <path class="st13" d="M202.3,306.3c3.8,3.2,8.6,5.1,13.9,5.1c11.9,0,21.6-9.7,21.6-21.6c0-6.1-2.6-11.7-6.7-15.6
	c1.5,3.7,7.5,20.5-7.9,31.4C223.3,305.6,214.7,310.3,202.3,306.3z"></path>
                <path class="st1" d="M216.3,296.1c-3.5,0-6.3-2.8-6.3-6.3c0-3.5,2.8-6.3,6.3-6.3c3.1,0,5.7,2.3,6.2,5.3h6.4
	c-0.5-6.5-6-11.6-12.6-11.6c-7,0-12.7,5.7-12.7,12.7c0,7,5.7,12.7,12.7,12.7c6.6,0,12.1-5.1,12.6-11.6h-6.4
	C222,293.8,219.4,296.1,216.3,296.1z"></path>
                <circle class="st9" cx="221.9" cy="336.6" r="3.8"></circle>
                <path class="st14" d="M265.4,329.4c-10.7-6.7-21.1,11-21.1,11c-16.3,29.9-51.8,35.5-51.8,35.5s0,0,0,0c18.3-1.1,33.4-4.8,33.4-4.8
	c20.5-5.4,32.8-22.1,40-41.3C265.7,329.7,265.6,329.5,265.4,329.4z"></path>
                <path class="st14" d="M118.1,340.4c0,0-10.4-17.7-21.1-11c7.2,19.3,19.5,36.2,40.2,41.7c0,0,14.8,3.6,32.7,4.8
	C169.8,375.8,134.4,370.2,118.1,340.4z"></path>
                <path class="st32"
                        d="M127.6,260.3c-0.4-0.9-1.5-2-3.3-3.4c-16.3-12.2-32.1-2.1-33.9-0.8C100.1,258,113,259.4,127.6,260.3z">
                </path>
                <path class="st32"
                        d="M235.7,260.3c0.4-0.9,1.5-2,3.3-3.4c16.3-12.2,32.1-2.1,33.9-0.8C263.2,258,250.3,259.4,235.7,260.3z">
                </path>
                <path class="st12" d="M86.8,255.1c38.9,9.1,150.1,9.1,189.1,0c0,0,6.4,101.1-50.2,116c0,0-21.6,5.3-44.3,5.1
	c-22.8,0.2-44.3-5.1-44.3-5.1C80.3,356.2,86.8,255.1,86.8,255.1z"></path>
                <path class="st7" d="M281.4,20.1C262.5,11,70.5,24.4,53,36c0,0-41.1,24.7-40.7,72.1l3.9,56.2c0,0,4.4,44.8,20.8,59.6
	s31.9,21.9,54.3,24.3c19.7,2.1,67,0.7,87.8-0.3l0,0.1c1-0.1,2.1-0.2,3.4-0.3c1.3-0.1,2.5-0.1,3.4-0.2l0-0.1
	c20.7-1.9,67.8-7.1,87-11.8c21.8-5.4,36.2-14.6,50.4-31.6c14.2-17,12.3-61.9,12.3-61.9l-3.9-56.2C325.5,38.9,281.4,20.1,281.4,20.1z
	"></path>
                <path class="st1" d="M12.8,107.9l2.2,32C18.7,64.3,61.3,39.5,61.3,39.5l-2.4-6.6c-2.1,1-3.9,2-5.4,2.9
	C53.5,35.8,12.4,60.6,12.8,107.9z"></path>
                <path class="st14"
                        d="M288.2,201.7c-0.6,0.4-1.3,0.9-2,1.5c-4.9,3.6-13,9.7-40.4,14.8l-59.1,5.3l-8.1,0.6l-59.3,2.9
	c-27.8-1.2-36.7-6.1-42-9.1c-0.8-0.4-1.5-0.8-2.2-1.2C56.2,205.7,52,172,51.8,170.6l-2.6-38c-1.6-19.5,1.6-24.8,2.1-25.5l0.3-0.1
	l0.3-0.7c3.4-6.7,12.7-12.4,20.1-16.9c1.1-0.7,2.2-1.4,3.3-2c26.5-13.4,75.8-18.9,92.4-20.5l8.1-0.6c16.7-0.8,66.3-2.1,94.4,7.5
	c1.1,0.5,2.3,1,3.5,1.5c8,3.5,18,7.8,22.3,14l0.4,0.6l0.3,0.1c0.6,0.7,4.5,5.5,5.6,25l2.7,38C305,154.4,305.4,188.4,288.2,201.7z">
                </path>
                <path class="st21" d="M281.4,20.1c-0.2-0.1-0.4-0.2-0.6-0.3l6.9,6.7c0,0,37.8,26.1,35.9,77.9c-1.9,51.9-6.1,91.6-45.9,117.6
	c-34.5,22.6-107.3,25.8-194.9,25c2.7,0.5,5.5,0.9,8.4,1.2c19.7,2.1,67,0.7,87.8-0.3l0,0.1c1-0.1,2.1-0.2,3.4-0.3
	c1.3-0.1,2.5-0.1,3.4-0.2l0-0.1c20.7-1.9,67.8-7.1,87-11.8c21.8-5.4,36.2-14.6,50.4-31.6c14.2-17,12.3-61.9,12.3-61.9l-3.9-56.2
	C325.5,38.9,281.4,20.1,281.4,20.1z"></path>
                <path class="st22" d="M97.5,220.3c0,0-26.9-1.7-33.5-31.6s-6.3-66.5-6.3-66.5s-1.3-13.3,21.2-24.3c13.8-6.8,49.6-21.8,100.2-24.1
	c31.9-1.4,84.6-4.1,111.5,16.2c0,0-137.6-30.6-198.5,33.7C92.1,123.7,47.9,168.9,97.5,220.3z"></path>
                <path class="st47"
                        d="M250.6,97.7c0,0-150.8-22.8-165.1,81c0,0-14.5-63.4,79.6-82.6C165.1,96.1,218.3,88.5,250.6,97.7z">
                </path>
                <path class="st12" d="M281.4,20.1C262.5,11,70.5,24.4,53,36c0,0-41.1,24.7-40.7,72.1l3.9,56.2c0,0,4.4,44.8,20.8,59.6
	s31.9,21.9,54.3,24.3c19.7,2.1,67,0.7,87.8-0.3l0,0.1c1-0.1,2.1-0.2,3.4-0.3c1.3-0.1,2.5-0.1,3.4-0.2l0-0.1
	c20.7-1.9,67.8-7.1,87-11.8c21.8-5.4,36.2-14.6,50.4-31.6c14.2-17,12.3-61.9,12.3-61.9l-3.9-56.2C325.5,38.9,281.4,20.1,281.4,20.1z
	"></path>
                <path class="st24" d="M166.1,1.4c-74.4,3.2-113,31.7-113,31.7s4.5,2.6,7.7,6.6c3.2,4,7,8.5,19.5,12.7c15.8,5.4,89.4,1.3,89.4,1.3
	s73.5-6.2,88.4-13.7c11.7-5.9,15-10.9,17.6-15.3c2.6-4.4,6.7-7.6,6.7-7.6S240.3-5.7,166.1,1.4z"></path>
                <path class="st7" d="M262.4,9.4c-11.5,8.4-49.8,33.9-90.4,36.9c-48.7,3.6-110.4-7-110.4-7c-0.3,0.1-0.5,0.3-0.7,0.4
	c3.1,4,7.1,8.4,19.4,12.6c15.8,5.4,89.4,1.3,89.4,1.3s73.5-6.2,88.4-13.7c11.7-5.9,15-10.9,17.6-15.3c2.6-4.4,6.7-7.6,6.7-7.6
	S275.5,13.4,262.4,9.4z"></path>
                <path class="st12" d="M166.1,1.4c-74.4,3.2-113,31.7-113,31.7s4.5,2.6,7.7,6.6c3.2,4,7,8.5,19.5,12.7c15.8,5.4,89.4,1.3,89.4,1.3
	s73.5-6.2,88.4-13.7c11.7-5.9,15-10.9,17.6-15.3c2.6-4.4,6.7-7.6,6.7-7.6S240.3-5.7,166.1,1.4z"></path>
                <linearGradient id="SVGID_1_" gradientUnits="userSpaceOnUse" x1="226.4636" y1="159.3932" x2="490.243"
                        y2="159.3932"
                        gradientTransform="matrix(0.9976 -6.936228e-02 6.936228e-02 0.9976 -191.3424 10.9182)">
                        <stop offset="0" style="st9op-color:#FFFFFF"></stop>
                        <stop offset="0.9994" style="st9op-color:#99AAD1"></stop>
                </linearGradient>
                <path class="st26" d="M307.3,114.6c-1.2-21-5.6-27-7.4-28.5c-5.2-7.2-15.7-11.7-24.2-15.4c-1.2-0.5-2.4-1.1-3.6-1.6l-0.2-0.1
	c-14.7-5-36.3-7.8-64.4-8.3c-13.6-0.2-25.4,0.2-32.1,0.5l0-0.1l-2.5,0.2c0,0-0.6,0-1.6,0.1c-1,0.1-1.5,0.1-1.6,0.1l-2.5,0.2l0,0.1
	c-6.6,0.6-18.4,1.8-31.8,3.9c-27.7,4.3-48.8,10.1-62.6,17.1L72.7,83c-1,0.7-2.1,1.3-3.3,2c-7.9,4.8-17.7,10.8-21.8,18.6
	c-1.6,1.8-5.2,8.3-3.4,29.3l2.6,38l0,0.1c0.2,1.5,4.4,37.6,25.9,49.8l0.1,0.1c0.7,0.3,1.3,0.7,2.1,1.1c5.7,3.1,15.3,8.4,44.3,9.7
	l59.7-2.9l0,0.2l4.1-0.4l4.1-0.2l0-0.2l59.6-5.3c28.6-5.3,37.3-11.8,42.6-15.7c0.7-0.5,1.3-1,1.9-1.4l0.1-0.1
	c19.6-15.1,18.8-51.4,18.7-52.9l0-0.1L307.3,114.6z M288.2,201.7c-0.6,0.4-1.3,0.9-2,1.5c-4.9,3.6-13,9.7-40.4,14.8l-59.1,5.3
	l-8.1,0.6l-59.3,2.9c-27.8-1.2-36.7-6.1-42-9.1c-0.8-0.4-1.5-0.8-2.2-1.2C56.2,205.7,52,172,51.8,170.5l-2.6-38
	c-1.6-19.5,1.6-24.8,2.1-25.5l0.3-0.1l0.3-0.7c3.4-6.7,12.7-12.4,20.1-16.9c1.1-0.7,2.2-1.4,3.3-2c26.5-13.4,75.8-18.9,92.4-20.5
	l8.1-0.6c16.7-0.8,66.3-2.1,94.4,7.5c1.1,0.5,2.3,1,3.5,1.5c8,3.5,18,7.8,22.3,14l0.4,0.6l0.3,0.1c0.6,0.7,4.5,5.5,5.6,25l2.7,38
	C305,154.4,305.4,188.4,288.2,201.7z"></path>
                <polygon class="st18" points="52.4,35.9 52.2,33 55.4,34.3 "></polygon>
                <path class="st27"
                        d="M180.8,208.1c4.7-0.5,8-4.7,7.5-9.4l-16.9,1.9C171.9,205.2,176.1,208.6,180.8,208.1z"></path>
                <path class="st5" d="M180.3,244.4"></path>
                <path class="st10" d="M261.1,171c-2.4-9.8-11.8-16.5-22.1-15.4c-10.3,1.1-17.9,9.8-18.2,19.8">
                        <animateTransform attributeName="transform" type="translate" repeatCount="indefinite" dur="0.4s"
                                keyTimes="0;0.5;1" values="0 -3;0 2;0 -3"></animateTransform>
                </path>
                <path class="st10" d="M135.7,184.9c-2.4-9.8-11.8-16.5-22.1-15.4c-10.3,1.1-17.9,9.8-18.2,19.8">
                        <animateTransform attributeName="transform" type="translate" repeatCount="indefinite" dur="0.4s"
                                keyTimes="0;0.5;1" values="0 -3;0 2;0 -3"></animateTransform>
                </path>

                <g>
                        <polygon class="st27" points="316,235 334.3,235 332.3,242.5 317.7,242.5"></polygon>
                        <circle class="st27" cx="331.8" cy="304.7" r="31.6">
                                <animateTransform attributeName="transform" type="rotate"
                                        values="-1 50 50;2 50 50;-1 50 50;" times="0;0.5;1" dur="0.5s"
                                        repeatCount="indefinite"></animateTransform>
                        </circle>
                        <path class="st21" d="M284,254.6c0,0-3.6,1-4.7,5.2s-0.5,7.9,0.3,9.5c2,4,3.4,4.9,7.6,5.3c5.6,0.5,28.7,6.2,46.8-13.4
	c0,0,6.3-12.5-2-15.3c0,0-7.1-1.6-13.6,1C311.9,249.5,293,255,284,254.6z"></path>
                        <path class="st7" d="M312.7,269.1c4.7-1.7,11.9-8.9,13.7-12.3c1.8-3.5-3.7-8.8-3.7-8.8s-1-0.7-2.4-1.6c-0.6,0.2-1.2,0.4-1.9,0.6
	c-6.5,2.6-25.3,8.1-34.4,7.7c0,0-3.6,1-4.7,5.2c-0.3,1.1-0.4,2.2-0.5,3.2c1.5,2.7,3.2,4.9,4,5.5c1.9,1.2,3.4,1.4,6.5,2.4
	C292.5,271.8,308.8,270.5,312.7,269.1z"></path>
                        <path class="st12" d="M284,254.6c0,0-3.6,1-4.7,5.2s-0.5,7.9,0.3,9.5c2,4,3.4,4.9,7.6,5.3c5.6,0.5,28.7,6.2,46.8-13.4
	c0,0,6.3-12.5-2-15.3c0,0-7.1-1.6-13.6,1C311.9,249.5,293,255,284,254.6z"></path>
                        <path class="st1" d="M343.5,292.5l-11.5,1.7l-0.2-1.6c-0.3-2.1-0.5-3.3-1-4.1c-0.5-0.8-1-1.1-1.8-1c-0.8,0.1-1.2,0.6-1.5,1.1
						c-0.4,0.5-0.6,1.8-0.5,2.6c0.2,1.6,0.8,2.8,1.8,3.5c0.9,0.7,3.2,1.6,6.8,3.6c3.1,1.2,5.4,2.6,6.8,3.2c1.4,1.1,2.4,1.8,3.5,3.7
						c1.1,1.5,1.8,3.9,2.2,6.4c0.6,4.1-0.1,7.6-1.5,9.9c-2.2,2-4.9,4.1-8.9,5.1l0.7,4.5l-5.3,0.8l-0.7-4.5c-3.4,0.1-6-0.8-8.8-2.5
						c-2.4-1.8-4.5-4.8-5.3-10.1l-0.3-2.1l11.5-1.7l0.4,2.9c0.4,2.9,0.7,4.9,1.3,5.7c0.5,0.8,1,1.1,1.8,1c0.8-0.1,1.6-0.7,1.5-1.1
						c0.4-0.5,0.6-1.8,0.5-2.2c-0.4-2.5-1.1-4.5-1.6-5.2c-0.6-1.2-2-1.8-4.3-3.2c-4-1.5-6.7-2.8-8.1-3.8c-1.8-1-2.8-2.1-4-4
						c-1.5-1.5-2.3-3.9-2.6-5.9c-0.5-3.3,0.3-6.4,1.7-8.7c1.4-1.9,4.4-4,8.5-5l-0.5-3.7l6.2-0.9l0.5,3.7c3.8-0.1,6.4,0.7,8.8,2.5
						c1.9,1.4,3.2,4.6,3.7,7.9C343.2,290.4,343.3,291.2,343.5,292.5z">
                                <animateTransform attributeName="transform" type="rotate"
                                        values="-2 50 50;3 50 50;-2 50 50;" times="0;0.5;1" dur="0.5s"
                                        repeatCount="indefinite"></animateTransform>
                        </path>
                        <animateTransform attributeName="transform" type="translate" values="0 -5;0 5;0 -5;"
                                times="0;0.5;1" dur="0.5s" repeatCount="indefinite"></animateTransform>
                </g>
                <g>
                        <polygon class="st27" points="45.8,242.6 31.2,242.6 29.1,235.1 47.4,235.1"></polygon>
                        <circle class="st27" cx="31.6" cy="304.8" r="31.6">
                                <animateTransform attributeName="transform" type="rotate"
                                        values="2 50 50;-1 50 50;2 50 50;" times="0;0.5;1" dur="0.5s"
                                        repeatCount="indefinite"></animateTransform>
                        </circle>
                        <path class="st1" d="M48.2,298.5L37,295.4l0.4-1.6c0.5-2,0.9-3.2,0.7-4.1c-0.2-0.9-0.5-1.4-1.3-1.6s-1.3,0.1-1.8,0.4
						c-0.5,0.3-1.2,1.4-1.5,2.2c-0.4,1.6-0.4,2.9,0.2,3.9s2.3,2.8,4.8,6.1c2.4,2.4,3.9,4.5,4.9,5.7c0.9,1.5,1.5,2.6,1.7,4.8
						c0.4,1.8,0.1,4.3-0.6,6.7c-1.1,4-3.2,6.9-5.3,8.5c-2.8,0.9-6.1,1.8-10.2,1.1l-1.2,4.4l-5.2-1.4l1.2-4.4c-3.1-1.3-5.2-3.1-7-5.8
						c-1.5-2.6-2.2-6.2-0.8-11.4l0.5-2l11.2,3.1l-0.8,2.8c-0.8,2.8-1.3,4.8-1.1,5.7c0.2,0.9,0.5,1.4,1.3,1.6s1.7,0,1.8-0.4
						c0.5-0.3,1.2-1.4,1.4-1.8c0.7-2.4,0.8-4.5,0.6-5.4c-0.1-1.3-1.1-2.4-2.6-4.6c-3.1-3-5-5.3-5.9-6.8c-1.3-1.6-1.7-3.1-2-5.3
						c-0.8-1.9-0.5-4.5,0-6.5c0.9-3.2,2.9-5.7,5-7.3c2-1.2,5.7-1.9,9.8-1.2l1-3.6l6,1.6l-1,3.6c3.5,1.4,5.6,3.3,7,5.8
						c1.2,2,1.1,5.5,0.2,8.7C48.8,296.5,48.5,297.3,48.2,298.5z">
                                <animateTransform attributeName="transform" type="rotate"
                                        values="3 50 50;-2 50 50;3 50 50;" times="0;0.5;1" dur="0.5s"
                                        repeatCount="indefinite"></animateTransform>
                        </path>
                        <path class="st21" d="M79.5,254.7c0,0,3.6,1,4.7,5.2c1.1,4.2,0.5,7.9-0.3,9.5c-2,4-3.4,4.9-7.6,5.3c-5.6,0.5-28.7,6.2-46.8-13.4
	c0,0-6.3-12.5,2-15.3c0,0,7.1-1.6,13.6,1S70.4,255.2,79.5,254.7z"></path>
                        <path class="st7" d="M50.8,269.2c-4.7-1.7-11.9-8.9-13.7-12.3c-1.8-3.5,3.7-8.8,3.7-8.8s1-0.7,2.4-1.6c0.6,0.2,1.2,0.4,1.9,0.6
	c6.5,2.6,25.3,8.1,34.4,7.7c0,0,3.6,1,4.7,5.2c0.3,1.1,0.4,2.2,0.5,3.2c-1.5,2.7-3.2,4.9-4,5.5c-1.9,1.2-3.4,1.4-6.5,2.4
	C71,271.9,54.7,270.6,50.8,269.2z"></path>
                        <path class="st12" d="M79.5,254.7c0,0,3.6,1,4.7,5.2c1.1,4.2,0.5,7.9-0.3,9.5c-2,4-3.4,4.9-7.6,5.3c-5.6,0.5-28.7,6.2-46.8-13.4
	c0,0-6.3-12.5,2-15.3c0,0,7.1-1.6,13.6,1S70.4,255.2,79.5,254.7z"></path>
                        <animateTransform attributeName="transform" type="translate" values="0 -5;0 5;0 -5;"
                                times="0;0.5;1" dur="0.5s" repeatCount="indefinite"></animateTransform>
                </g>

                <animateTransform attributeName="transform" type="translate" repeatCount="indefinite" dur="2s"
                        keyTimes="0;0.5;1" values="0 -3;0 5;0 -3"></animateTransform>
        </g>
</svg>