<svg xmlns="http://www.w3.org/2000/svg" x="0px" y="0px" viewBox="0 -10 370.6 417.5" xml:space="preserve">
        <style type="text/css">
                .st1 {
                        fill: #FFFFFF;
                }

                .st24 {
                        fill: #fbf9f9;
                }

                .st7 {
                        fill: #EFEFEF;
                }

                .st21 {
                        fill: #d6d6d6;
                }

                .st13 {
                        opacity: 0.1;
                        fill: #FFFFFF;
                }

                .st6618 {
                        fill: #ECF0F1;
                }

                .st35 {
                        fill: #E0E0E0;
                }

                .st45 {
                        fill: #E3E3E3;
                }

                .st51 {
                        fill: #E1E1E1;
                }

                .st52 {
                        fill: #FDFDFB;
                }

                .st625 {
                        fill: #D1D1D1;
                }

                .st5 {
                        fill: #606373;
                }

                .st4 {
                        opacity: 0.1;
                        fill: #a3a3a3;
                }

                .st6 {
                        fill: #11113B;
                }

                .st8 {
                        fill: #B1B1C9;
                }

                .st9 {
                        fill: #DCDBEA;
                        stroke: #8D8DAA;
                        stroke-miterlimit: 10;
                }

                .st18 {
                        fill: #8D8DAA;
                }

                .st12 {
                        fill: none;
                        stroke: #8D8DAA;
                        stroke-miterlimit: 10;
                }

                .st11 {
                        fill: #0052ff;
                        stroke: #FFFFFF;
                        stroke-miterlimit: 10;
                }

                .st14 {
                        fill: #060423;
                }

                .st22 {
                        fill: #ffffff24;
                }

                .st26 {
                        fill: url(#SVGID_1_);
                }

                .st27 {
                        fill: #2CFBFB;
                }

                .st47 {
                        fill: #ffffff24;
                }

                .st1019 {
                        fill: #882043;
                }

                .st1021 {
                        opacity: 0.3;
                        fill: #16DAE8;
                }

                .st1022 {
                        opacity: 0.3;
                        fill: #1FDBE7;
                }

                .st1023 {
                        opacity: 0.5;
                        fill: #BA8887;
                }

                .st1024 {
                        fill: #212154;
                }

                .st1026 {
                        fill: none;
                }

                .st1029 {
                        fill: #5497D3;
                }

                .st1030 {
                        fill: #2775CA;
                }

                .st1031 {
                        fill: #FFDE55;
                }

                .st1032 {
                        fill: #FFCE00;
                }

                .st1034 {
                        fill: #E33F00;
                }

                .st10 {
                        fill: none;
                        stroke: #2CFBFB;
                        stroke-width: 8;
                        stroke-linecap: round;
                        stroke-miterlimit: 10;
                }

                .st33 {
                        fill: none;
                        stroke: #2CFBFB;
                        stroke-width: 2;
                        stroke-linecap: round;
                        stroke-miterlimit: 10;
                }

                .st716 {
                        fill: #56256B;
                }

                .st717 {
                        fill: #00A8E1;
                }

                .st718 {
                        fill: #E26D83;
                }

                .st719 {
                        fill: #D85C72;
                }

                .st720 {
                        fill: #803743;
                }

                .st721 {
                        fill: #0071CE;
                }

                .st6619 {
                        fill: #F87F6E;
                }

                .st6620 {
                        fill: #231F20;
                }

                .st6621 {
                        fill: #212154;
                }

                .st32 {
                        fill: #77788B;
                }

                .st38 {
                        fill: #9A9AB7;
                }

                .st39 {
                        fill: #060423;
                        stroke: #FFFFFF;
                        stroke-miterlimit: 10;
                }

                .st43 {
                        fill: #212154;
                }

                .st54 {
                        opacity: 0.3;
                        fill: #B1B1C9;
                }

                .st55 {
                        opacity: 0.3;
                        fill: #FFFFFF;
                }

                .st615 {
                        fill: #9B9BA2;
                }

                .st620 {
                        fill: #FFD469;
                }

                .st621 {
                        fill: #00B1FF;
                }

                .st622 {
                        fill: #0096D1;
                }

                .st623 {
                        fill: #727272;
                }

                .st624 {
                        fill: #B2B2B2;
                }

                .st816 {
                        fill: #9B9BA2;
                }

                .st820 {
                        fill: #75B7B1;
                }

                .st823 {
                        opacity: 0.8;
                }

                .st824 {
                        opacity: 0.6;
                }

                .st826 {
                        fill: none;
                        stroke: #01DEEB;
                        stroke-width: 2;
                        stroke-miterlimit: 10;
                }

                .sta18 {
                        fill: #9B9BA2;
                }

                .sta21 {
                        opacity: 0.1;
                        fill: #3AECFE;
                }

                .sta22 {
                        opacity: 0.2;
                        fill: #FFFFFF;
                }

                .sta23 {
                        fill: #956EC4;
                }

                .sta24 {
                        fill: #B77FD8;
                }

                .sta25 {
                        fill: #6D2C92;
                }

                .sta26 {
                        fill: #1C2042;
                }

                .stb1 {
                        fill: #F87F6E;
                }

                .stb2 {
                        fill: #D65649;
                }

                .stb6 {
                        fill: #882043;
                }

                .sta27 {
                        fill: none;
                        stroke: #FFA81E;
                        stroke-width: 15;
                        stroke-linecap: round;
                        stroke-linejoin: round;
                        stroke-miterlimit: 10;
                }

                .sta28 {
                        fill: none;
                        stroke: #FFD92D;
                        stroke-width: 15;
                        stroke-linecap: round;
                        stroke-linejoin: round;
                        stroke-miterlimit: 10;
                }
        </style>
        <ellipse class="st4" cx="185.2" cy="391.5" rx="135.6" ry="16">
                <animate accumulate="none" additive="replace" attributeName="rx" calcMode="linear" dur="2s"
                        fill="remove" keyTimes="0;0.5;1" repeatCount="indefinite" restart="always"
                        values="115.6;135.6;115.6">
                </animate>
        </ellipse>
        <g>
                <path class="st5" d="M270.3,220.9c-18.2,3.2-62.3,5-81.7,5.4h-6.4c-19.4-0.4-63.5-2.2-81.7-5.4c-1-0.2-1.9-0.4-2.8-0.5l0.1,11.3
	c36.3,8.5,139.9,8.5,176.2,0l0.2-11.6C273,220.4,271.7,220.7,270.3,220.9z"></path>
                <path class="st32"
                        d="M135.7,236.6c-0.4-0.8-1.4-1.9-3.1-3.2c-15.2-11.4-29.9-1.9-31.6-0.7C110.1,234.4,122.1,235.7,135.7,236.6z">
                </path>
                <path class="st32"
                        d="M236.4,236.6c0.4-0.8,1.4-1.9,3.1-3.2c15.2-11.4,29.9-1.9,31.6-0.7C262.1,234.4,250.1,235.7,236.4,236.6z">
                </path>
                <path class="st6" d="M239.1,226.3h-4h-97.8h-4c-3,5,1.2,7.3,1.2,7.3c-1.3,1.3,1.2,3,1.2,3l3,2.7l45.2-0.6l49.9,0.6l3-2.7
	c0,0,2.5-1.7,1.2-3C237.9,233.6,242,231.2,239.1,226.3z"></path>
                <path class="st7" d="M274.1,231.7c-36.3,8.5-139.9,8.5-176.2,0c0,0-6,94.2,46.8,108.1c0,0,20.1,4.9,41.3,4.8
	c21.2,0.2,41.3-4.8,41.3-4.8C280.1,325.9,274.1,231.7,274.1,231.7z"></path>
                <path class="st35" d="M274.1,231.7c-6.4,1.5-15,2.8-25,3.7c0,0-0.1,0.1-0.1,0.1s10.6,50.8-4.1,70.1c-14.1,18.5-22.8,32-103.7,32.5
	c-0.6,0-1.3,0-1.9,0c1.7,0.7,3.5,1.3,5.3,1.7c0,0,20.1,4.9,41.3,4.8c21.2,0.2,41.3-4.8,41.3-4.8
	C280.1,325.9,274.1,231.7,274.1,231.7z"></path>
                <path class="st8" d="M247.1,256.8c-0.8-12.9-1.6-17.6-1.8-18.5v-0.1c0,0,0,0,0,0c0,0,0,0,0,0s-0.6,0.1-1.7,0.2
	c-5.5,0.6-24.3,2.4-57,2.4c-32.7,0-51.5-1.8-57-2.4c-1.1-0.1-1.7-0.2-1.7-0.2s0,0,0,0c0,0,0,0,0,0v0.1c-0.2,0.8-1,5.6-1.8,18.5
	c-0.5,8,0,18.1,0,18.1s-0.1,18,11.4,32.5c0.9,1.1,1.8,2.2,2.9,3.3c2.5,2.6,4.8,4.9,7.4,6.8c0,0,0.1,0.1,0.1,0.1
	c0.1,0.1,0.2,0.1,0.3,0.2c0.8,0.6,1.7,1.1,2.6,1.7c0,0,0,0,0,0c0.3,0.2,0.6,0.4,1,0.5c0.2,0.1,0.5,0.2,0.7,0.4
	c0.1,0.1,0.2,0.1,0.3,0.2c6.6,3.2,16.1,4.9,33.6,4.9c0.1,0,0.1,0,0.2,0c0.1,0,0.1,0,0.2,0c0.1,0,0.1,0,0.2,0c0.1,0,0.1,0,0.2,0
	c17.5,0,27-1.7,33.6-4.9c0.1-0.1,0.2-0.1,0.3-0.2c0.2-0.1,0.5-0.2,0.7-0.4c0.3-0.2,0.7-0.4,1-0.5c0,0,0,0,0,0
	c0.9-0.5,1.8-1.1,2.6-1.7c0.1-0.1,0.2-0.1,0.3-0.2c0,0,0.1-0.1,0.1-0.1c2.6-2,4.9-4.2,7.4-6.8c1-1.1,2-2.2,2.9-3.3
	c11.5-14.5,11.4-32.5,11.4-32.5S247.6,264.8,247.1,256.8z"></path>
                <circle class="st9" cx="134.1" cy="243.9" r="3.5"></circle>
                <circle class="st9" cx="149.7" cy="307.7" r="3.5"></circle>
                <path class="st38" d="M243.6,238.3C243.6,238.3,243.6,238.3,243.6,238.3c-2,0.2-5.4,0.6-10.5,0.9c1.6,11.7,2.9,41.2-7.2,55.5
	c-13.7,19.4-56.3,36.6-81.3,20.2c0.9,0.8,1.9,1.7,2.9,2.4c0,0,0.1,0.1,0.1,0.1c0.1,0.1,0.2,0.1,0.3,0.2c0.8,0.6,1.7,1.1,2.6,1.7
	c0,0,0,0,0,0c0.3,0.2,0.6,0.4,1,0.5c0.2,0.1,0.5,0.2,0.7,0.4c0.1,0.1,0.2,0.1,0.3,0.2c6.6,3.2,16.1,4.9,33.6,4.9c0.1,0,0.1,0,0.2,0
	c0.1,0,0.1,0,0.2,0c0.1,0,0.1,0,0.2,0c0.1,0,0.1,0,0.2,0c17.5,0,27-1.7,33.6-4.9c0.1-0.1,0.2-0.1,0.3-0.2c0.2-0.1,0.5-0.2,0.7-0.4
	c0.3-0.2,0.7-0.4,1-0.5c0,0,0,0,0,0c0.9-0.5,1.8-1.1,2.6-1.7c0.1-0.1,0.2-0.1,0.3-0.2c0,0,0.1-0.1,0.1-0.1c2.6-2,4.9-4.2,7.4-6.8
	c1-1.1,2-2.2,2.9-3.3c11.5-14.5,11.4-32.5,11.4-32.5s0.5-10.1,0-18.1c-0.8-12.9-1.6-17.6-1.8-18.5v-0.1
	C245.3,238.1,244.7,238.2,243.6,238.3z"></path>
                <circle class="st39" cx="218.3" cy="264" r="20.2">
                        <animate attributeName="fill" repeatCount="indefinite" dur="2s" keyTimes="0;0.5;1"
                                values="#272362;#0052ff;#272362"></animate>
                </circle>
                <circle class="st9" cx="238.5" cy="243.9" r="3.5"></circle>
                <path class="st12" d="M274.1,231.7c-36.3,8.5-139.9,8.5-176.2,0c0,0-6,94.2,46.8,108.1c0,0,20.1,4.9,41.3,4.8
	c21.2,0.2,41.3-4.8,41.3-4.8C280.1,325.9,274.1,231.7,274.1,231.7z"></path>
                <path class="st13" d="M205.3,279.4c3.5,3,8,4.8,13,4.8c11.1,0,20.2-9,20.2-20.2c0-5.7-2.4-10.9-6.2-14.5c1.4,3.4,7,19.1-7.3,29.3
	C225,278.8,216.9,283.1,205.3,279.4z"></path>
                <path class="st1" d="M218.4,269.9c-3.3,0-5.9-2.6-5.9-5.9s2.6-5.9,5.9-5.9c2.9,0,5.3,2.1,5.8,4.9h5.9c-0.5-6.1-5.6-10.8-11.8-10.8
	c-6.5,0-11.8,5.3-11.8,11.8c0,6.5,5.3,11.8,11.8,11.8c6.2,0,11.3-4.8,11.8-10.8h-6C223.7,267.8,221.3,269.9,218.4,269.9z">
                </path>
                <circle class="st9" cx="223.7" cy="307.7" r="3.5"></circle>
                <path class="st43" d="M264.2,301c-9.9-6.3-19.7,10.2-19.7,10.2c-15.2,27.9-48.3,33.1-48.3,33.1s0,0,0,0c17-1,31.1-4.5,31.1-4.5
	c19.1-5,30.5-20.6,37.3-38.5C264.5,301.2,264.3,301.1,264.2,301z"></path>
                <path class="st7" d="M292.1,24.9c-17-9.7-196.4-9.7-213.4,0c0,0-39.8,20.3-42.5,64.4v52.5c0,0,1.2,41.9,15.5,56.8
	s28.2,22.5,48.9,26.1c18.2,3.2,62.3,5,81.7,5.4v0.1c0.9,0,2,0,3.2,0c1.2,0,2.3,0,3.2,0V230c19.4-0.4,63.5-2.2,81.7-5.4
	c20.6-3.6,34.6-11.2,48.9-26.1c14.3-14.9,15.5-56.8,15.5-56.8V89.3C331.9,45.2,292.1,24.9,292.1,24.9z"></path>
                <path class="st43" d="M126.9,311.2c0,0-9.7-16.5-19.7-10.2c6.8,18,18.2,33.8,37.4,38.8c0,0,13.8,3.4,30.5,4.5
	C175.1,344.2,142.1,339,126.9,311.2z"></path>
                <path class="st14" d="M286.7,194.2c-0.6,0.4-1.3,0.8-2,1.2c-4.8,3.1-12.7,8.2-38.5,11.2l-55.3,1.1h-7.6l-55.3-1.1
	c-25.7-3-33.7-8.1-38.5-11.2c-0.7-0.5-1.3-0.9-2-1.2c-16.8-11.3-18.6-42.9-18.7-44.2l0-35.5c-0.2-18.2,3.1-22.9,3.6-23.6l0.3-0.1
	l0.4-0.6c3.6-6,12.6-10.7,19.8-14.4c1.1-0.6,2.2-1.1,3.2-1.7c25.5-10.7,71.7-12.7,87.2-13.1h7.6c15.5,0.4,61.8,2.3,87.2,13.1
	c1,0.5,2.1,1.1,3.2,1.7c7.2,3.8,16.2,8.4,19.8,14.4l0.4,0.6l0.3,0.1c0.5,0.6,3.9,5.4,3.6,23.6l0,35.5
	C305.4,151.3,303.5,182.9,286.7,194.2z"></path>
                <path class="st45"
                        d="M292.1,24.9c-0.2-0.1-0.3-0.2-0.5-0.3l6,6.7c0,0,33.5,26.7,28.3,74.8c-5.2,48.1-11.6,84.7-50.2,106.3
	c-33.6,18.8-101.4,17-182.8,10.6c2.5,0.6,5,1.2,7.7,1.6c18.2,3.2,62.3,5,81.7,5.4v0.1c0.9,0,2,0,3.2,0c1.2,0,2.3,0,3.2,0V230
	c19.4-0.4,63.5-2.2,81.7-5.4c20.6-3.6,34.6-11.2,48.9-26.1c14.3-14.9,15.5-56.8,15.5-56.8V89.3C331.9,45.2,292.1,24.9,292.1,24.9z">
                </path>
                <path class="st22" d="M108.2,199.2c0,0-24.9-3.3-29.1-31.6c-4.3-28.2-1.5-62.2-1.5-62.2s-0.3-12.4,21.3-21.3
	c13.2-5.4,47.5-17.1,94.7-15.9c29.7,0.7,78.9,1.7,102.6,22.3c0,0-126-37.3-186.7,18.5C109.4,109,65.4,148.2,108.2,199.2z">
                </path>
                <path class="st47"
                        d="M258.4,95c0,0-138.7-31-158.8,64.7c0,0-9.4-59.9,79.4-71.6C179.1,88,229,84.4,258.4,95z"></path>
                <path class="st12" d="M292.1,24.9c-17-9.7-196.4-9.7-213.4,0c0,0-39.8,20.3-42.5,64.4v52.5c0,0,1.2,41.9,15.5,56.8
	s28.2,22.5,48.9,26.1c18.2,3.2,62.3,5,81.7,5.4v0.1c0.9,0,2,0,3.2,0c1.2,0,2.3,0,3.2,0V230c19.4-0.4,63.5-2.2,81.7-5.4
	c20.6-3.6,34.6-11.2,48.9-26.1c14.3-14.9,15.5-56.8,15.5-56.8V89.3C331.9,45.2,292.1,24.9,292.1,24.9z"></path>
                <path class="st24" d="M186.1,0C116.7-1.8,79,22.2,79,22.2s4.1,2.7,6.7,6.7c2.7,3.9,6,8.3,17.3,13.1c14.3,6,83.1,7,83.1,7
	s68.7-1,83.1-7c11.3-4.7,14.6-9.1,17.3-13.1c2.7-3.9,6.7-6.7,6.7-6.7S255.5-1.8,186.1,0z"></path>
                <polygon class="st21" points="293.6,25.7 294,22.2 290.6,24.3 "></polygon>
                <path class="st7" d="M275.1,13.7c-11.3,7-48.5,28.3-86.5,28.5C143.2,42.4,86.5,28.5,86.5,28.5c-0.2,0.1-0.5,0.2-0.7,0.3
	c2.7,3.9,6,8.3,17.3,13c14.3,6,83.1,7,83.1,7s68.7-1,83.1-7c11.3-4.7,14.6-9.1,17.3-13.1c2.7-3.9,6.7-6.7,6.7-6.7
	S287.1,18.2,275.1,13.7z"></path>
                <path class="st12" d="M186.1,0C116.7-1.8,79,22.2,79,22.2s4.1,2.7,6.7,6.7c2.7,3.9,6,8.3,17.3,13.1c14.3,6,83.1,7,83.1,7
	s68.7-1,83.1-7c11.3-4.7,14.6-9.1,17.3-13.1c2.7-3.9,6.7-6.7,6.7-6.7S255.5-1.8,186.1,0z"></path>
                <linearGradient id="SVGID_1_" gradientUnits="userSpaceOnUse" x1="64.2321" y1="134.3273" x2="310.0823"
                        y2="134.3273">
                        <stop offset="0" style="stop-color:#FFFFFF"></stop>
                        <stop offset="0.9994" style="stop-color:#99AAD1"></stop>
                </linearGradient>
                <path class="st26" d="M310.1,114.4c0.3-19.6-3.5-25.4-5.1-27c-4.4-7-13.9-11.9-21.5-15.9c-1.1-0.6-2.2-1.1-3.2-1.7l-0.2-0.1
	c-13.3-5.6-33.3-9.6-59.3-11.9c-12.6-1.1-23.7-1.5-29.9-1.6v-0.1h-2.3c0,0-0.5,0-1.5,0c-0.9,0-1.4,0-1.5,0h-2.3v0.1
	c-6.2,0.1-17.2,0.5-29.9,1.6c-26,2.2-46,6.2-59.3,11.9L94,69.9c-1,0.5-2.1,1.1-3.2,1.7c-7.6,4-17.1,8.9-21.5,15.9
	c-1.6,1.6-5.3,7.4-5.1,27l0,35.5l0,0.1c0.1,1.4,1.7,35.3,20.8,48l0.1,0.1c0.6,0.3,1.2,0.7,1.9,1.2c5.1,3.3,13.7,8.8,40.6,11.9
	l55.7,1.1v0.2l3.8-0.1l3.8,0.1v-0.2l55.7-1.1c26.9-3.1,35.5-8.6,40.6-11.9c0.7-0.4,1.3-0.8,1.9-1.2l0.1-0.1
	c19.2-12.7,20.8-46.6,20.8-48l0-0.1L310.1,114.4z M286.7,194.1c-0.6,0.4-1.3,0.8-2,1.2c-4.8,3.1-12.7,8.2-38.5,11.2l-55.3,1.1h-7.6
	l-55.3-1.1c-25.7-3-33.7-8.1-38.5-11.2c-0.7-0.5-1.3-0.9-2-1.2c-16.8-11.3-18.6-42.9-18.7-44.2l0-35.5c-0.2-18.2,3.1-22.9,3.6-23.6
	l0.3-0.1l0.4-0.6c3.6-6,12.6-10.7,19.8-14.4c1.1-0.6,2.2-1.1,3.2-1.7c25.5-10.7,71.7-12.7,87.2-13.1h7.6
	c15.5,0.4,61.8,2.3,87.2,13.1c1,0.5,2.1,1.1,3.2,1.7c7.2,3.8,16.2,8.4,19.8,14.4l0.4,0.6l0.3,0.1c0.5,0.6,3.9,5.4,3.6,23.6l0,35.5
	C305.4,151.3,303.5,182.9,286.7,194.1z"></path>
                <circle class="st27" cx="127.1" cy="151.4" r="27.5">
                        <animate attributeName="r" repeatCount="indefinite" dur="2s" keyTimes="0;0.01;0.02;0.98;0.99;1"
                                values="0;0;27.8;27.8;0;0"></animate>
                </circle>
                <circle class="st27" cx="245.8" cy="151.4" r="27.5">
                        <animate attributeName="r" repeatCount="indefinite" dur="2s" keyTimes="0;0.01;0.02;0.98;0.99;1"
                                values="0;0;27.8;27.8;0;0"></animate>
                </circle>
                <circle class="st27" cx="186.4" cy="187.1" r="4.7"></circle>
                <g>
                        <g>
                                <path class="st7" d="M65.4,241.3c0,0,16.5,11.6,18.6,12c2.1,0.3,6.4,1.2,7.3,0.7v-3.3l4.5-8.1c0,0,1-2.1,0-3.2
		c-1-1.1-18.2-11.4-18.2-11.4s-3.6-3.6-5.7-3.7c0,0-3.8,1.8-5.7,6C64.2,234.3,65.4,241.3,65.4,241.3z"></path>
                                <path class="st51"
                                        d="M91.3,250.6l-26.2-14.1c0,2.6,0.4,4.8,0.4,4.8s16.5,11.6,18.6,12c2.1,0.3,6.4,1.2,7.3,0.7V250.6z">
                                </path>
                                <path class="st52" d="M76.5,226.9c-1.2-1.1-3.3-2.7-4.7-2.8c0,0-3.8,1.8-5.7,6c-1.9,4.2-0.7,11.2-0.7,11.2l2,1.4l3-3.2
		C70.5,239.5,73.5,231.4,76.5,226.9z"></path>
                                <path class="st12" d="M65.4,241.3c0,0,16.5,11.6,18.6,12c2.1,0.3,6.4,1.2,7.3,0.7v-3.3l4.5-8.1c0,0,1-2.1,0-3.2
		c-1-1.1-18.2-11.4-18.2-11.4s-3.6-3.6-5.7-3.7c0,0-3.8,1.8-5.7,6C64.2,234.3,65.4,241.3,65.4,241.3z"></path>
                        </g>
                        <g>
                                <path class="st7" d="M306,241.3c0,0-16.5,11.6-18.6,12c-2.1,0.3-6.4,1.2-7.3,0.7v-3.3l-4.5-8.1c0,0-1-2.1,0-3.2
		c1-1.1,18.2-11.4,18.2-11.4s3.6-3.6,5.7-3.7c0,0,3.8,1.8,5.7,6C307.2,234.3,306,241.3,306,241.3z"></path>
                                <path class="st51"
                                        d="M280.2,250.6l26.2-14.1c0,2.6-0.4,4.8-0.4,4.8s-16.5,11.6-18.6,12c-2.1,0.3-6.4,1.2-7.3,0.7V250.6z">
                                </path>
                                <path class="st52" d="M294.9,226.9c1.2-1.1,3.3-2.7,4.7-2.8c0,0,3.8,1.8,5.7,6c1.9,4.2,0.7,11.2,0.7,11.2l-2,1.4l-3-3.2
		C300.9,239.5,297.9,231.4,294.9,226.9z"></path>
                                <path class="st12" d="M306,241.3c0,0-16.5,11.6-18.6,12c-2.1,0.3-6.4,1.2-7.3,0.7v-3.3l-4.5-8.1c0,0-1-2.1,0-3.2
		c1-1.1,18.2-11.4,18.2-11.4s3.6-3.6,5.7-3.7c0,0,3.8,1.8,5.7,6C307.2,234.3,306,241.3,306,241.3z"></path>
                        </g>
                        <path class="st27" d="M5.9,136.6l30,3.2l1.4,17.3L5,153.4C5,153.4,4.4,141.4,5.9,136.6z"></path>
                        <path class="st27" d="M365,136.6l-30,3.2l-1.4,17.3l32.3-3.7C366,153.4,366.5,141.4,365,136.6z">
                        </path>
                        <path class="st54" d="M6.2,141.8c0,0,2.1-19.3,7.2-23.7s11.9-14.4,40.7-20.5s85.1,0.6,94.7,8.4c10.7,8.6,15.6,16.3,12.3,43.3
	c-3.3,27-16.6,51.1-29,58.4c-12.4,7.3-69.2,23.6-98.5,9.6S5.4,147.2,6.2,141.8z"></path>
                        <path class="st55" d="M92.9,114.1c0,0-3.4,30.1-58.8,68.2c0,0-18.7,9-20.1-3.4s-4.1-47.5,8.2-58.1s29.2-19.7,58.5-19.2
	C80.6,101.5,98.6,99.3,92.9,114.1z"></path>
                        <path class="st54" d="M364.2,141.8c0,0-2.1-19.3-7.2-23.7s-11.9-14.4-40.7-20.5s-85.1,0.6-94.7,8.4c-10.7,8.6-15.6,16.3-12.3,43.3
	c3.3,27,16.6,51.1,29,58.4c12.4,7.3,69.2,23.6,98.5,9.6S365,147.2,364.2,141.8z"></path>
                        <path class="st27" d="M363.3,111.3c-6.8-10.5-35.6-23.6-58.9-23.9c-23.3-0.3-69.6,1.6-80.5,2.2c-9.6,0.6-37.5,0.7-37.5,0.7
	s-30.2-0.1-39.8-0.7C135.6,89,89.3,87.1,66,87.4c-23.3,0.3-52.1,13.4-58.9,23.9c-6.8,10.5-6.8,40-6.8,40s5.4,59.6,34.2,71.3
	c28.9,11.8,93.6-5,106.1-15.1s24.7-36.7,29.8-56.2c4.7-17.8,13-19.1,15.8-19.1c2.8,0,8.9,1.3,13.5,19.1
	c5.1,19.5,17.2,46.1,29.8,56.2s77.3,26.9,106.1,15.1c28.9-11.8,34.2-71.3,34.2-71.3S370,121.8,363.3,111.3z M161.2,149.3
	c-3.3,27-16.6,51.1-29,58.4c-12.4,7.3-69.2,23.6-98.5,9.6c-29.3-14-28.2-70.1-27.5-75.4c0,0,2.1-19.3,7.2-23.7
	c5.1-4.4,11.9-14.4,40.7-20.5c28.9-6.1,85.1,0.6,94.7,8.4C159.6,114.6,164.5,122.3,161.2,149.3z M198.3,128.6c-2-1.3-7.4-2.9-12.5-3
	c-5.8-0.1-11.4,1.5-13.7,3c0,0-4.3-22.1-7.5-22.4c0,0,4.4-2.7,21.8-2.7s19.5,2.7,19.5,2.7C202.6,106.6,198.3,128.6,198.3,128.6z
	 M336.8,217.2c-29.3,14-86.1-2.3-98.5-9.6c-12.4-7.3-25.8-31.4-29-58.4c-3.3-27,1.6-34.7,12.3-43.3c9.6-7.7,65.9-14.4,94.7-8.4
	c28.9,6.1,35.6,16.1,40.7,20.5c5.1,4.4,7.2,23.7,7.2,23.7C365,147.2,366.1,203.3,336.8,217.2z"></path>
                        <path class="st27" d="M370,149.4c-0.1-6.8-1-29.2-6.7-38.1c-6.8-10.5-35.6-23.6-58.9-23.9c-23.3-0.3-69.6,1.6-80.5,2.2
	c-9.6,0.6-37.5,0.7-37.5,0.7s-30.2-0.1-39.8-0.7C135.6,89,89.3,87.1,66,87.4c-23.3,0.3-52.1,13.4-58.9,23.9
	c-5.2,8-6.4,27.2-6.7,35.8c1.4-13.3,4.6-28.9,12.2-36.2c14.3-13.8,41-20,73.1-19.3c22.3,0.5,62,2.1,84.1,3l-0.1,0.7h14.5
	c0,0,0.3,0,0.9,0c0.6,0,0.9,0,0.9,0h14.5l-0.1-0.7c22.1-0.9,61.8-2.5,84.1-3c32.1-0.8,58.8,5.5,73.1,19.3
	C365.6,118.6,368.8,135.7,370,149.4z"></path>
                        <path class="st55"
                                d="M218.3,170.5c0,0-12.6-32.1-1.8-49.6s26-19.2,48.9-21c0,0,4.6,0,0,9.8S258,132.6,218.3,170.5z">
                        </path>
                        <animateTransform attributeName="transform" type="translate" repeatCount="indefinite" dur="2s"
                                keyTimes="0;0.05;0.1;0.98;0.99;1" values="0 -3;0 -3;0 5;0 5;0 -3;0 -3">
                        </animateTransform>
                </g>
                <animateTransform attributeName="transform" type="translate" repeatCount="indefinite" dur="2s"
                        keyTimes="0;0.5;1" values="0 -3;0 5;0 -3"></animateTransform>
        </g>
</svg>