<?xml version="1.0" encoding="utf-8"?>
<!-- Generator: Adobe Illustrator 27.0.0, SVG Export Plug-In . SVG Version: 6.00 Build 0)  -->
<svg version="1.1" id="图层_1" xmlns="http://www.w3.org/2000/svg" xmlns:xlink="http://www.w3.org/1999/xlink" x="0px" y="0px"
	 viewBox="0 0 46.1 46.1" style="enable-background:new 0 0 46.1 46.1;" xml:space="preserve">
<style type="text/css">
	.st0{fill:#F7F8F8;}
	.st1{fill:#CED2DB;}
	.st2{fill:#0A0B0D;}
	.st3{fill:#0052FF;}
	.st4{fill:#0A0B0D;stroke:#FFFFFF;stroke-miterlimit:10;}
</style>
<circle class="st0" cx="23" cy="23" r="23"/>
<path class="st1" d="M11.6,38.4c0,4,5.2,7.3,11.4,7.3s11.4-3.3,11.4-7.3s-5.2-7.3-11.4-7.3C16.7,31.1,11.6,34.4,11.6,38.4z"/>
<path class="st2" d="M34.5,31.1c0-6-5.1-11-11.4-11s-11.4,5-11.4,11H34.5z"/>
<rect x="11.6" y="31.1" class="st1" width="22.9" height="7.9"/>
<path class="st3" d="M31.6,29h-17c-6,0-10.9-4.9-10.9-10.9v-3.3c0-6,4.9-10.9,10.9-10.9h16.9c6,0,10.9,4.9,10.9,10.9v3.3
	C42.4,24.1,37.5,29,31.6,29z"/>
<g>
	<circle class="st4" cx="15.6" cy="16.4" r="4"/>
	<circle class="st4" cx="30.6" cy="16.4" r="4"/>
</g>
</svg>
